# xmcd
#
# Track frame offsets:
#	150
#	16765
#	33687
#	50565
#	67599
#	85968
#	102572
#	118171
#	133829
#	149421
#	163796
#	179369
#	196397
#	213716
#	226982
#	241686
#	258868
#	275670
#	292820
#	307786
#	323147
#
# Disc length: 4492 seconds
#
# Revision: 0
# Processed by: cddbd v1.5.2PL0 Copyright (c) Steve Scherf et al.
# Submitted via: dBpowerAMP V4.0
#
DISCID=30118a15
DTITLE=Various Artist - ERG Nu Country Traxx Volume 167
DYEAR=2008
DGENRE=Country
TTITLE0=Alan Jackson - Good Time
TTITLE1=Aaron Lines - Moments That Matter
TTITLE2=Rodney Atkins - Invisibly Shaken
TTITLE3=Kenny Chesney - Better As A Memory
TTITLE4=Carrie Underwood - Last Name
TTITLE5=Eric Church - His Kinda Money (My Kinda Love)
TTITLE6=Brooks and Dunn - Put A Girl In It
TTITLE7=Shane Yellowbird - Drive Me Home
TTITLE8=Gary Allen - Learning How To Bend
TTITLE9=Luke Bryan - Country Man
TTITLE10=Chuck Wicks - All I Ever Wanted
TTITLE11=Garth Brooks - Midnight Sun
TTITLE12=Willie Mack - Golden Years
TTITLE13=Shooter Jennings - This Ol Wheel
TTITLE14=Adam Gregory - Crazy Days
TTITLE15=Lonestar - Let Me Love You
TTITLE16=Hey Romeo - Weathered Names
TTITLE17=Higgins, The - Flower Child
TTITLE18=Ashley Gearing - Out Of The Window
TTITLE19=Jamie Warren - She Just Loves To Dance
TTITLE20=Emily West - Rocks In Your Shoes
EXTD=
EXTT0=
EXTT1=
EXTT2=
EXTT3=
EXTT4=
EXTT5=
EXTT6=
EXTT7=
EXTT8=
EXTT9=
EXTT10=
EXTT11=
EXTT12=
EXTT13=
EXTT14=
EXTT15=
EXTT16=
EXTT17=
EXTT18=
EXTT19=
EXTT20=
PLAYORDER=
